<svg xmlns="http://www.w3.org/2000/svg" width="60" height="32.441" viewBox="0 0 60 32.441">
    <defs>
        <style>
            .cls-1{fill:#e2001a}
        </style>
    </defs>
    <g id="crown" transform="translate(-343.251 -372.313)">
        <path id="Path_25" d="M362.448 188.662a1.766 1.766 0 0 1-1.06-3.18c4.689-3.508 11.864-5.6 19.194-5.6 7.3 0 14.459 2.1 19.145 5.6a1.765 1.765 0 0 1-2.115 2.827c-3.165-2.369-9.3-4.9-17.031-4.9-7.765 0-13.911 2.529-17.077 4.9a1.747 1.747 0 0 1-1.057.353" class="cls-1" transform="translate(-7.307 213.075)"/>
        <path id="Path_26" d="M368.607 200.76a1.207 1.207 0 0 1-.766-2.141c4.054-3.33 10.515-5.319 17.289-5.319 6.741 0 13.183 1.988 17.237 5.319a1.206 1.206 0 1 1-1.531 1.865c-3.639-2.986-9.51-4.77-15.706-4.77-6.136 0-12.174 1.827-15.755 4.772a1.208 1.208 0 0 1-.768.274" class="cls-1" transform="translate(-11.852 203.993)"/>
        <path id="Path_27" d="M333.422 137.78a4.048 4.048 0 0 0-.01 8.1h.028a4.048 4.048 0 0 0 3.478-6.109 4.075 4.075 0 0 0-3.5-1.99" class="cls-1" transform="translate(13.871 241.556)"/>
        <path id="Path_28" d="M413.657 147.414a4.049 4.049 0 1 0 4.047 4.047 4.056 4.056 0 0 0-4.047-4.047" class="cls-1" transform="translate(-40.404 235.038)"/>
        <path id="Path_29" d="M413.657 116.067a4.048 4.048 0 1 0 4.047 4.047 4.056 4.056 0 0 0-4.047-4.047" class="cls-1" transform="translate(-40.404 256.246)"/>
        <path id="Path_30" d="M380.357 151.774a4.111 4.111 0 0 0-1.072.142 4.05 4.05 0 0 0 1.05 7.956h.093a4.118 4.118 0 0 0 1-.143 4.05 4.05 0 0 0-1.07-7.955" class="cls-1" transform="translate(-17.874 232.088)"/>
        <path id="Path_31" d="M349.385 164.766a4.051 4.051 0 0 0-3.478 6.112 4.094 4.094 0 0 0 3.471 1.983h.023a4.06 4.06 0 0 0 2.058-.562 4.053 4.053 0 0 0 1.423-5.545 4.082 4.082 0 0 0-3.5-1.99" class="cls-1" transform="translate(3.07 223.299)"/>
        <path id="Path_32" d="M448.035 151.917a4.051 4.051 0 1 0 2.838 4.975 4.033 4.033 0 0 0-2.838-4.975" class="cls-1" transform="translate(-62.945 232.088)"/>
        <path id="Path_33" d="M456.305 121.677a4.049 4.049 0 0 0-2.135 7.812 4.049 4.049 0 1 0 2.135-7.812" class="cls-1" transform="translate(-68.54 252.548)"/>
        <path id="Path_34" d="M479.989 165.329a4.056 4.056 0 1 0 1.858 2.479 4.04 4.04 0 0 0-1.858-2.479" class="cls-1" transform="translate(-83.89 223.299)"/>
        <path id="Path_35" d="M497.805 140.826a4.045 4.045 0 0 0-3.917-3.041 4.068 4.068 0 0 0-3.487 1.988 4.049 4.049 0 0 0 3.481 6.109 4.064 4.064 0 0 0 3.489-1.989 4.012 4.012 0 0 0 .434-3.066" class="cls-1" transform="translate(-94.684 241.553)"/>
        <path id="Path_36" d="M372.087 129.633a4.05 4.05 0 0 0 0-8.1 3.983 3.983 0 0 0-1.068.144 4.049 4.049 0 0 0 1.049 7.955z" class="cls-1" transform="translate(-12.277 252.548)"/>
    </g>
</svg>
