<svg xmlns="http://www.w3.org/2000/svg" width="231.98" height="100" viewBox="0 0 231.98 100">
    <defs>
        <style>
            .cls-1{fill:#e2001a}
        </style>
    </defs>
    <g id="Group_1" transform="translate(-177.783 -116.067)">
        <path id="Path_1" d="M363.169 192.249a2.488 2.488 0 0 1-1.493-4.479c6.6-4.941 16.709-7.893 27.031-7.893 10.284 0 20.363 2.952 26.963 7.893a2.486 2.486 0 0 1-2.978 3.981c-4.457-3.336-13.1-6.9-23.985-6.9-10.935 0-19.592 3.561-24.05 6.9a2.46 2.46 0 0 1-1.488.5" class="cls-1" transform="translate(-99.584 -34.743)"/>
        <path id="Path_2" d="M369.1 203.806a1.7 1.7 0 0 1-1.079-3.015c5.71-4.69 14.809-7.491 24.349-7.491 9.493 0 18.566 2.8 24.275 7.491a1.7 1.7 0 1 1-2.156 2.627c-5.125-4.206-13.393-6.717-22.119-6.717-8.641 0-17.145 2.574-22.188 6.72a1.7 1.7 0 0 1-1.081.385" class="cls-1" transform="translate(-103.242 -42.052)"/>
        <path id="Path_3" d="M335.073 137.78a5.7 5.7 0 0 0-.014 11.4h.039a5.7 5.7 0 0 0 4.9-8.6 5.739 5.739 0 0 0-4.924-2.8" class="cls-1" transform="translate(-82.541 -11.822)"/>
        <path id="Path_4" d="M415.312 147.414a5.7 5.7 0 1 0 5.7 5.7 5.712 5.712 0 0 0-5.7-5.7" class="cls-1" transform="translate(-126.221 -17.068)"/>
        <path id="Path_5" d="M415.312 116.067a5.7 5.7 0 1 0 5.7 5.7 5.713 5.713 0 0 0-5.7-5.7" class="cls-1" transform="translate(-126.221)"/>
        <path id="Path_6" d="M382.012 151.774a5.79 5.79 0 0 0-1.509.2 5.7 5.7 0 0 0 1.479 11.2h.13a5.8 5.8 0 0 0 1.407-.2 5.7 5.7 0 0 0-1.507-11.2" class="cls-1" transform="translate(-108.089 -19.442)"/>
        <path id="Path_7" d="M351.036 164.766a5.706 5.706 0 0 0-4.9 8.608 5.765 5.765 0 0 0 4.888 2.793h.033a5.718 5.718 0 0 0 2.9-.792 5.708 5.708 0 0 0 2-7.809 5.748 5.748 0 0 0-4.925-2.8" class="cls-1" transform="translate(-91.233 -26.515)"/>
        <path id="Path_8" d="M450.124 151.975a5.7 5.7 0 1 0 4 7.006 5.682 5.682 0 0 0-4-7.006" class="cls-1" transform="translate(-144.361 -19.442)"/>
        <path id="Path_9" d="M458.394 121.735a5.7 5.7 0 0 0-3.006 11 5.7 5.7 0 1 0 3.006-11" class="cls-1" transform="translate(-148.864 -2.976)"/>
        <path id="Path_10" d="M482.484 165.56a5.712 5.712 0 1 0 2.617 3.491 5.69 5.69 0 0 0-2.617-3.491" class="cls-1" transform="translate(-161.218 -26.515)"/>
        <path id="Path_11" d="M501.06 142.068a5.7 5.7 0 0 0-5.516-4.283 5.729 5.729 0 0 0-4.911 2.8 5.7 5.7 0 0 0 4.9 8.6 5.724 5.724 0 0 0 4.914-2.8 5.65 5.65 0 0 0 .612-4.317" class="cls-1" transform="translate(-169.905 -11.825)"/>
        <path id="Path_12" d="M373.744 132.941a5.7 5.7 0 0 0-.007-11.408 5.609 5.609 0 0 0-1.5.2 5.7 5.7 0 0 0 1.478 11.2z" class="cls-1" transform="translate(-103.585 -2.976)"/>
        <path id="Path_13" d="M594.872 255.115a3.3 3.3 0 1 0 6.6 0v-22.872a3.3 3.3 0 1 0-6.6 0z" class="cls-1" transform="translate(-227.096 -61.457)"/>
        <path id="Path_14" d="M386.5 252.723a3.03 3.03 0 0 1 0 6.061h-11.215a1.792 1.792 0 0 1-1.795-1.793v-23.544a3.216 3.216 0 0 1 6.432 0v18.915a.358.358 0 0 0 .358.358z" class="cls-1" transform="translate(-106.555 -62.161)"/>
        <path id="Path_15" d="M546.956 231.706a4.256 4.256 0 0 0-7.9 1.973v21.68a3.123 3.123 0 0 0 6.245 0v-13.216a.188.188 0 0 1 .191-.186l.161.09 7.907 13.973a4.037 4.037 0 0 0 7.559-1.973V232a3.058 3.058 0 1 0-6.119 0v13.215l-.191.186-.157-.091z" class="cls-1" transform="translate(-196.705 -61.457)"/>
        <path id="Path_16" d="M624.737 231.706a4.257 4.257 0 0 0-7.9 1.973v21.68a3.123 3.123 0 0 0 6.245 0v-13.215a.19.19 0 0 1 .194-.186l.157.09 7.909 13.973a4.037 4.037 0 0 0 7.558-1.973V232a3.058 3.058 0 0 0-6.116 0v13.215l-.191.186-.159-.091z" class="cls-1" transform="translate(-239.054 -61.457)"/>
        <path id="Path_17" d="M289.759 239.088a.413.413 0 0 0 .3-.128l7.039-7.409a2.987 2.987 0 0 1 4.363 4.08l-8.548 9.916-.137 10.427a3.015 3.015 0 1 1-6.031 0l-.136-10.427-8.549-9.916a2.986 2.986 0 0 1 4.362-4.08l7.041 7.409a.413.413 0 0 0 .3.128" class="cls-1" transform="translate(-54.167 -62.373)"/>
        <path id="Path_18" d="M234.745 237.279a7.643 7.643 0 1 0 7.641 7.641 7.642 7.642 0 0 0-7.641-7.641m14.2 7.641a14.2 14.2 0 1 1-14.2-14.2 14.205 14.205 0 0 1 14.2 14.2" class="cls-1" transform="translate(-23.281 -62.425)"/>
        <path id="Path_19" d="M491.643 242.183v4.681l2.933.005a.266.266 0 0 0 .265-.266l-.046-.145zm15.984 11.607a3.063 3.063 0 1 1-4.894 3.685l-3.3-4.4h-7.789l-.029 2.532a3.251 3.251 0 0 1-3.275 3.093 3.1 3.1 0 0 1-3.1-3.093v-22.82c0-1.8 1.457-2.695 3.252-2.695a3.242 3.242 0 0 1 2.463 1.129z" class="cls-1" transform="translate(-167.405 -62.086)"/>
        <path id="Path_20" d="M327.806 246.456l-.045.145a.261.261 0 0 0 .265.262h2.935v-4.684zm3.837-15.234a3.25 3.25 0 0 1 5.715 2.118v22.265a3.1 3.1 0 0 1-3.1 3.1 3.254 3.254 0 0 1-3.277-3.1l-.026-2.528h-7.785l-3.3 4.395a3.063 3.063 0 1 1-4.894-3.685z" class="cls-1" transform="translate(-74.358 -62.083)"/>
        <path id="Path_21" d="M427.259 245.206a14.03 14.03 0 0 0 13.36 14.121 14.534 14.534 0 0 0 10.655-4.547 3.017 3.017 0 0 0-3.7-4.617l-2.475 1.668a7.4 7.4 0 0 1-4.034 1.193 7.823 7.823 0 0 1 0-15.634 7.408 7.408 0 0 1 4.034 1.191l2.395 1.592a3.019 3.019 0 0 0 3.7-4.618 12.654 12.654 0 0 0-9.817-4.466 14.118 14.118 0 0 0-14.12 14.118" class="cls-1" transform="translate(-135.834 -62.626)"/>
        <path id="Path_22" d="M186.959 237.238a3.077 3.077 0 1 0 3.317 3.067 3.2 3.2 0 0 0-3.317-3.067m-9.176 3.207c0-2.727.6-5.263 2.576-7.1a8.963 8.963 0 0 1 6.921-2.46 9.315 9.315 0 0 1 9.145 9.561 8.171 8.171 0 0 1-4.051 7.177l4.626 7.352a2.92 2.92 0 0 1 .323 1.331 3.056 3.056 0 0 1-3.073 2.9 2.892 2.892 0 0 1-1.989-.793l-7.408-10.064-.155-.039a.33.33 0 0 0-.328.333l-.106 7.543a3.019 3.019 0 1 1-6.039 0z" class="cls-1" transform="translate(0 -62.505)"/>
        <path id="Path_23" d="M675.9 231.815c.3 0 .481-.072.481-.4s-.182-.408-.481-.408h-.678v.806zm-.678 1.72c0 .255-.091.437-.409.437s-.4-.145-.4-.437v-2.8c0-.2.07-.377.413-.377h1.024c.734 0 1.348.216 1.348 1.058a.877.877 0 0 1-.905 1l.645 1.048.052.19c0 .2-.125.319-.425.319s-.38-.22-.5-.437l-.57-1.068h-.271zm.524 1.088a2.517 2.517 0 1 0-2.517-2.518 2.513 2.513 0 0 0 2.517 2.518m0-5.85a3.331 3.331 0 1 1-3.332 3.332 3.336 3.336 0 0 1 3.332-3.332" class="cls-1" transform="translate(-269.315 -61.366)"/>
        <path id="Path_24" d="M404.356 325.9v-1.077h-3.817v-6.84h-1.2v7.917zm-9.2-7.917h-1.2v7.917h1.2zm-6.6 5.3h-2.436l1.235-3.513zm2.157 2.613l-2.9-7.917h-.965l-2.9 7.917h1.281l.543-1.59h3.128l.546 1.59zm-8.641-6.841v-1.076h-5.56v1.076h2.18v6.845h1.2v-6.841zm-8.621 6.841v-1.077H369.6v-2.383h3.292v-1.065H369.6v-2.316h3.858v-1.076H368.4v7.921zm-10.152-4.015a3.843 3.843 0 0 1-.422 2.4 1.716 1.716 0 0 1-1.347.535h-1.457v-5.764h1.457a1.714 1.714 0 0 1 1.347.535c.411.456.422 1.2.422 2.291m1.2 0c0-1.145.055-2.3-.8-3.159a2.825 2.825 0 0 0-2.046-.743h-2.783v7.924h2.783a2.826 2.826 0 0 0 2.046-.745c.855-.856.8-2.123.8-3.27m-13.082-3.9h-1.312l-1.654 3.48-1.658-3.48h-1.312l2.369 4.66v3.255h1.2v-3.257zm-10.029 2.321a1.207 1.207 0 0 1-1.347 1.238h-1.782v-2.483h1.782a1.214 1.214 0 0 1 1.347 1.245m1.444 5.6l-1.824-3.5a2.076 2.076 0 0 0 1.579-2.1 2.263 2.263 0 0 0-2.458-2.312h-3.067v7.906h1.2v-3.338h1.5l1.67 3.338zm-9.532 0v-1.077h-3.86v-2.383h3.292v-1.065h-3.292v-2.316h3.86v-1.076h-5.059v7.911zm-8.264-7.917h-1.269l-1.823 5.76-1.823-5.76h-1.245l2.6 7.917h.934zM316.1 325.9v-1.077h-3.86v-2.383h3.294v-1.065h-3.294v-2.316h3.86v-1.076h-5.06v7.917zm-13.49 0v-7.917h-1.2v5.56l-3.661-5.56h-1.1v7.917h1.2v-5.57l3.661 5.572zm-10.145-7.917h-1.2v7.917h1.2zm-9.21 7.917v-1.077H279.4v-2.383h3.294v-1.065H279.4v-2.316h3.858v-1.076H278.2v7.917zm-8.541 0v-1.077H270.9v-6.84h-1.2v7.917zm-10.109-2.29a1.177 1.177 0 0 1-1.3 1.213h-1.89v-2.413h1.89a1.169 1.169 0 0 1 1.3 1.2m-.124-3.416c0 .735-.521 1.137-1.289 1.137h-1.78v-2.271h1.78c.768 0 1.289.4 1.289 1.134m1.323 3.472a1.88 1.88 0 0 0-1.189-1.834 1.8 1.8 0 0 0 1.069-1.68 2.127 2.127 0 0 0-2.392-2.168h-3.081v7.916h3.2a2.145 2.145 0 0 0 2.391-2.235m-9.775-5.682h-1.2v7.917h1.2zm-6.294 3.9a3.832 3.832 0 0 1-.423 2.4 1.709 1.709 0 0 1-1.345.535h-1.46v-5.764h1.46a1.707 1.707 0 0 1 1.345.535c.413.456.423 1.2.423 2.291m1.2 0c0-1.145.056-2.3-.8-3.159a2.821 2.821 0 0 0-2.047-.743h-2.78v7.922h2.78a2.823 2.823 0 0 0 2.047-.745c.855-.856.8-2.123.8-3.27m-9.386 4.015v-1.077h-3.86v-2.383h3.293v-1.065h-3.293v-2.316h3.86v-1.076h-5.06v7.917zm-10.131-5.6a1.208 1.208 0 0 1-1.347 1.238h-1.782v-2.483h1.782a1.214 1.214 0 0 1 1.347 1.245m1.444 5.6l-1.823-3.5a2.076 2.076 0 0 0 1.577-2.1 2.262 2.262 0 0 0-2.456-2.312h-3.07v7.912h1.2v-3.338h1.5l1.669 3.338zm-9.5-.866l-.8-.813a1.79 1.79 0 0 1-1.413.669 1.585 1.585 0 0 1-1.167-.479c-.389-.425-.467-.879-.467-2.472s.077-2.044.467-2.468a1.578 1.578 0 0 1 1.167-.479 1.786 1.786 0 0 1 1.413.669l.8-.813a2.92 2.92 0 0 0-2.214-.934 2.866 2.866 0 0 0-2.077.844c-.78.779-.768 1.659-.768 3.18s-.012 2.406.768 3.182a2.862 2.862 0 0 0 2.077.846 2.92 2.92 0 0 0 2.214-.933m-8.953.866v-7.917h-1.2v5.56l-3.662-5.56h-1.1v7.918h1.2v-5.57l3.659 5.572zm-10.143-7.917h-1.2v7.918h1.2z" class="cls-1" transform="translate(-13.765 -109.903)"/>
    </g>
</svg>
