<svg xmlns="http://www.w3.org/2000/svg" width="251.4" height="74.613" viewBox="0 0 251.4 74.613">
    <g data-name="SOL haslo">
        <path data-name="Path 146" d="M28.1 4.3 6.3 39.8h21.8V44h-27v-4L22.8 4.5H1.9V.4h26.2z" style="fill:#ec001a" transform="translate(0 .005)"/>
        <path data-name="Path 147" d="M51.9.4c4.9 0 8.5 1.4 11.4 4.6 3.9 4.2 3.9 10.5 3.9 17.2s0 13-3.8 17.2C60.5 42.6 56.9 44 52 44H37V.4zM41.6 4.5v35.2h9.5c3.3 0 6.4-.7 8.6-3.2 2.8-3 2.9-8.4 2.9-14.4s-.1-11.4-2.9-14.4c-2.2-2.4-5.3-3.2-8.6-3.2z" style="fill:#ec001a" transform="translate(0 .005)"/>
        <path data-name="Path 148" d="M93.9.4c7.6 0 12.9 4.6 12.9 12.1a11.3 11.3 0 0 1-9.5 11.7L107.6 44h-5.4l-9.9-19.3H81.8V44h-4.7V.4zm-12 4.1v16h11.6c5.1 0 8.7-2.6 8.7-7.9s-3.6-8-8.7-8z" style="fill:#ec001a" transform="translate(0 .005)"/>
        <path data-name="Path 149" d="M140.8 4.3c4.1 4.1 4.4 7.9 4.4 17.9s-.3 13.8-4.4 17.9a14.942 14.942 0 0 1-10.8 4.3 14.77 14.77 0 0 1-10.9-4.3c-4.1-4.1-4.3-7.9-4.3-17.9s.3-13.8 4.3-17.9a15.838 15.838 0 0 1 21.7 0zm-18.4 2.9c-2.8 2.8-3 6-3 14.9s.3 12.1 3 14.9a10.875 10.875 0 0 0 15 0c2.8-2.8 3.1-6 3.1-14.9s-.3-12.1-3.1-14.9a10.875 10.875 0 0 0-15 0z" style="fill:#ec001a" transform="translate(0 .005)"/>
        <path data-name="Path 150" d="M189 43.9h-4.3L175 9.1 165.3 44H161L149.9.4h5l8.5 35.1L173 .4h4.2l9.6 35.1L195.3.4h4.9z" style="fill:#ec001a" transform="translate(0 .005)"/>
        <path data-name="Path 151" d="M211.1 43.9h-4.6V.4h4.6z" style="fill:#ec001a" transform="translate(0 .005)"/>
        <path data-name="Path 152" d="M249.9 4.5h-22.4v15.3h19.1V24h-19.1v15.8h22.4V44h-27V.4h27z" style="fill:#ec001a" transform="translate(0 .005)"/>
        <path data-name="Path 153" d="M13.7 57.2H4.1v5.1h8.3v3.6H4.1v8.5H0V53.5h13.7z" style="fill:#ec001a" transform="translate(0 .005)"/>
        <path data-name="Path 154" d="M31.9 67.2c0 4.4-3.4 7.3-7.7 7.3s-7.6-2.9-7.6-7.3V53.5h4.1V67c0 2.4 1.4 3.8 3.6 3.8a3.468 3.468 0 0 0 3.6-3.8V53.5H32v13.7z" style="fill:#ec001a" transform="translate(0 .005)"/>
        <path data-name="Path 155" d="M51.9 74.4h-3.6L40 61.6v12.7h-4V53.5h3.6l8.3 12.7V53.5H52z" style="fill:#ec001a" transform="translate(0 .005)"/>
        <path data-name="Path 156" d="M63.9 53.5a7.3 7.3 0 0 1 6.3 3c1.3 1.8 1.3 3.9 1.3 7.4s0 5.6-1.3 7.4a7.3 7.3 0 0 1-6.3 3h-7.5V53.5zm-3.4 3.7v13.6h3.1a3.512 3.512 0 0 0 3-1.3c.8-.9.8-2.2.8-5.5s-.1-4.6-.8-5.5a3.512 3.512 0 0 0-3-1.3z" style="fill:#ec001a" transform="translate(0 .005)"/>
        <path data-name="Path 157" d="M91.3 74.4H87l-1.2-3.7h-7.4l-1.3 3.7h-4.3l7.6-20.8h3.2zm-11.7-7.2h5.1l-2.5-7.6z" style="fill:#ec001a" transform="translate(0 .005)"/>
        <path data-name="Path 158" d="M112.3 74.4h-4.1V62.2l-4 7.4h-2.8l-4-7.4v12.1h-4.1V53.5h4l5.4 10.8 5.4-10.8h4z" style="fill:#ec001a" transform="translate(0 .005)"/>
        <path data-name="Path 159" d="M130.5 57.2h-9.7V62h8.3v3.6h-8.3v5.1h9.7v3.6h-13.7V53.5h13.7z" style="fill:#ec001a" transform="translate(0 .005)"/>
        <path data-name="Path 160" d="M150 74.4h-3.6l-8.3-12.7v12.7H134V53.5h3.6l8.3 12.7V53.5h4.1v20.9z" style="fill:#ec001a" transform="translate(0 .005)"/>
        <path data-name="Path 161" d="M167.9 57.2h-5.4v17.2h-4.1V57.2H153v-3.6h15z" style="fill:#ec001a" transform="translate(0 .005)"/>
        <path data-name="Path 162" d="m189.5 56.7-8.9 14h8.9v3.6h-13.7v-3.2l8.9-14h-8.5v-3.6h13.3zm-5.2-5.2h-3.2v-3.7h3.2z" style="fill:#ec001a" transform="translate(0 .005)"/>
        <path data-name="Path 163" d="M200.7 65.8v8.5h-4.1v-8.5l-6.2-12.3h4.4l3.9 8.4 3.8-8.4h4.4z" style="fill:#ec001a" transform="translate(0 .005)"/>
        <path data-name="Path 164" d="M223.6 59.9h-4.1A3.449 3.449 0 0 0 216 57a3.631 3.631 0 0 0-2.6 1.1c-.8.9-1 1.9-1 5.9s.3 5 1 5.9A3.631 3.631 0 0 0 216 71a3.317 3.317 0 0 0 3.5-3h4.1c-.7 4.4-3.7 6.6-7.6 6.6a7.383 7.383 0 0 1-5.6-2.2c-2.1-2.1-2.1-4.4-2.1-8.4s0-6.3 2.1-8.4a7.383 7.383 0 0 1 5.6-2.2c3.9-.1 6.9 2.2 7.6 6.5z" style="fill:#ec001a" transform="translate(0 .005)"/>
        <path data-name="Path 165" d="M230.8 74.4h-4.1V53.5h4.1z" style="fill:#ec001a" transform="translate(0 .005)"/>
        <path data-name="Path 166" d="M251.4 74.4h-4.3l-1.2-3.7h-7.4l-1.3 3.7h-4.3l7.6-20.8h3.2zm-11.8-7.2h5.1l-2.5-7.6z" style="fill:#ec001a" transform="translate(0 .005)"/>
    </g>
</svg>
